<mxfile host="app.diagrams.net" modified="2023-11-13T01:51:30.949Z" agent="Mozilla/5.0 (Windows NT 10.0; Win64; x64) AppleWebKit/537.36 (KHTML, like Gecko) Chrome/119.0.0.0 Safari/537.36" etag="YqN19QFF0zZTJIgIc_S0" version="22.1.0" type="github">
  <diagram name="페이지-1" id="5Jwt5W8f6A57FJKGW4zd">
    <mxGraphModel dx="787" dy="1233" grid="1" gridSize="10" guides="1" tooltips="1" connect="1" arrows="1" fold="1" page="1" pageScale="1" pageWidth="827" pageHeight="1169" math="0" shadow="0">
      <root>
        <mxCell id="0" />
        <mxCell id="1" parent="0" />
        <mxCell id="i4vDzlRR8qIi1nZQJ5Jg-1" value="" style="ellipse;whiteSpace=wrap;html=1;fillColor=#dae8fc;strokeColor=#6c8ebf;" vertex="1" parent="1">
          <mxGeometry x="80" y="240" width="100" height="100" as="geometry" />
        </mxCell>
        <mxCell id="i4vDzlRR8qIi1nZQJ5Jg-2" value="" style="ellipse;whiteSpace=wrap;html=1;fillColor=#f8cecc;strokeColor=#b85450;" vertex="1" parent="1">
          <mxGeometry x="280" y="240" width="100" height="100" as="geometry" />
        </mxCell>
        <mxCell id="i4vDzlRR8qIi1nZQJ5Jg-3" value="" style="ellipse;whiteSpace=wrap;html=1;fillColor=#ffe6cc;strokeColor=#d79b00;" vertex="1" parent="1">
          <mxGeometry x="480" y="240" width="100" height="100" as="geometry" />
        </mxCell>
        <mxCell id="i4vDzlRR8qIi1nZQJ5Jg-4" value="" style="ellipse;whiteSpace=wrap;html=1;fillColor=#d5e8d4;strokeColor=#82b366;" vertex="1" parent="1">
          <mxGeometry x="680" y="240" width="100" height="100" as="geometry" />
        </mxCell>
        <mxCell id="i4vDzlRR8qIi1nZQJ5Jg-6" value="" style="ellipse;whiteSpace=wrap;html=1;fillColor=#8F8F8F;" vertex="1" parent="1">
          <mxGeometry x="80" y="550" width="100" height="100" as="geometry" />
        </mxCell>
        <mxCell id="i4vDzlRR8qIi1nZQJ5Jg-7" value="" style="ellipse;whiteSpace=wrap;html=1;fillColor=#8F8F8F;" vertex="1" parent="1">
          <mxGeometry x="280" y="550" width="100" height="100" as="geometry" />
        </mxCell>
        <mxCell id="i4vDzlRR8qIi1nZQJ5Jg-8" value="" style="ellipse;whiteSpace=wrap;html=1;fillColor=#8F8F8F;" vertex="1" parent="1">
          <mxGeometry x="480" y="550" width="100" height="100" as="geometry" />
        </mxCell>
        <mxCell id="i4vDzlRR8qIi1nZQJ5Jg-9" value="" style="ellipse;whiteSpace=wrap;html=1;fillColor=#8F8F8F;" vertex="1" parent="1">
          <mxGeometry x="680" y="550" width="100" height="100" as="geometry" />
        </mxCell>
        <mxCell id="i4vDzlRR8qIi1nZQJ5Jg-10" value="" style="endArrow=classic;html=1;rounded=0;" edge="1" parent="1">
          <mxGeometry width="50" height="50" relative="1" as="geometry">
            <mxPoint x="190" y="290" as="sourcePoint" />
            <mxPoint x="270" y="290" as="targetPoint" />
          </mxGeometry>
        </mxCell>
        <mxCell id="i4vDzlRR8qIi1nZQJ5Jg-11" value="" style="endArrow=classic;html=1;rounded=0;" edge="1" parent="1">
          <mxGeometry width="50" height="50" relative="1" as="geometry">
            <mxPoint x="390" y="290" as="sourcePoint" />
            <mxPoint x="470" y="290" as="targetPoint" />
          </mxGeometry>
        </mxCell>
        <mxCell id="i4vDzlRR8qIi1nZQJ5Jg-12" value="" style="endArrow=classic;html=1;rounded=0;" edge="1" parent="1">
          <mxGeometry width="50" height="50" relative="1" as="geometry">
            <mxPoint x="590" y="290" as="sourcePoint" />
            <mxPoint x="670" y="290" as="targetPoint" />
          </mxGeometry>
        </mxCell>
        <mxCell id="i4vDzlRR8qIi1nZQJ5Jg-13" value="" style="endArrow=classic;html=1;rounded=0;" edge="1" parent="1">
          <mxGeometry width="50" height="50" relative="1" as="geometry">
            <mxPoint x="130" y="350" as="sourcePoint" />
            <mxPoint x="130" y="540" as="targetPoint" />
          </mxGeometry>
        </mxCell>
        <mxCell id="i4vDzlRR8qIi1nZQJ5Jg-14" value="" style="endArrow=classic;html=1;rounded=0;" edge="1" parent="1">
          <mxGeometry width="50" height="50" relative="1" as="geometry">
            <mxPoint x="330" y="350" as="sourcePoint" />
            <mxPoint x="330" y="540" as="targetPoint" />
          </mxGeometry>
        </mxCell>
        <mxCell id="i4vDzlRR8qIi1nZQJ5Jg-15" value="" style="endArrow=classic;html=1;rounded=0;" edge="1" parent="1">
          <mxGeometry width="50" height="50" relative="1" as="geometry">
            <mxPoint x="530" y="350" as="sourcePoint" />
            <mxPoint x="530" y="540" as="targetPoint" />
          </mxGeometry>
        </mxCell>
        <mxCell id="i4vDzlRR8qIi1nZQJ5Jg-16" value="" style="endArrow=classic;html=1;rounded=0;" edge="1" parent="1">
          <mxGeometry width="50" height="50" relative="1" as="geometry">
            <mxPoint x="730" y="350" as="sourcePoint" />
            <mxPoint x="730" y="540" as="targetPoint" />
          </mxGeometry>
        </mxCell>
        <mxCell id="i4vDzlRR8qIi1nZQJ5Jg-17" value="&lt;font style=&quot;font-size: 36px;&quot;&gt;&amp;nbsp;Z&lt;sub style=&quot;&quot;&gt;1&lt;/sub&gt;&lt;/font&gt;" style="text;strokeColor=none;align=center;fillColor=none;html=1;verticalAlign=middle;whiteSpace=wrap;rounded=0;" vertex="1" parent="1">
          <mxGeometry x="100" y="278" width="60" height="30" as="geometry" />
        </mxCell>
        <mxCell id="i4vDzlRR8qIi1nZQJ5Jg-18" value="&lt;font style=&quot;font-size: 36px;&quot;&gt;&lt;font style=&quot;&quot;&gt;&amp;nbsp;Z&lt;/font&gt;&lt;font style=&quot;&quot;&gt;&lt;sub style=&quot;&quot;&gt;2&lt;/sub&gt;&lt;/font&gt;&lt;/font&gt;" style="text;strokeColor=none;align=center;fillColor=none;html=1;verticalAlign=middle;whiteSpace=wrap;rounded=0;" vertex="1" parent="1">
          <mxGeometry x="300" y="278" width="60" height="30" as="geometry" />
        </mxCell>
        <mxCell id="i4vDzlRR8qIi1nZQJ5Jg-19" value="&lt;font style=&quot;font-size: 36px;&quot;&gt;&amp;nbsp;Z&lt;sub style=&quot;&quot;&gt;4&lt;/sub&gt;&lt;/font&gt;" style="text;strokeColor=none;align=center;fillColor=none;html=1;verticalAlign=middle;whiteSpace=wrap;rounded=0;" vertex="1" parent="1">
          <mxGeometry x="700" y="278" width="60" height="30" as="geometry" />
        </mxCell>
        <mxCell id="i4vDzlRR8qIi1nZQJ5Jg-20" value="&lt;font style=&quot;font-size: 36px;&quot;&gt;&amp;nbsp;Z&lt;sub style=&quot;&quot;&gt;3&lt;/sub&gt;&lt;/font&gt;" style="text;strokeColor=none;align=center;fillColor=none;html=1;verticalAlign=middle;whiteSpace=wrap;rounded=0;" vertex="1" parent="1">
          <mxGeometry x="500" y="278" width="60" height="30" as="geometry" />
        </mxCell>
        <mxCell id="i4vDzlRR8qIi1nZQJ5Jg-21" value="&lt;font style=&quot;font-size: 36px;&quot;&gt;A&lt;sub style=&quot;&quot;&gt;12&lt;/sub&gt;&lt;/font&gt;" style="text;strokeColor=none;align=center;fillColor=none;html=1;verticalAlign=middle;whiteSpace=wrap;rounded=0;" vertex="1" parent="1">
          <mxGeometry x="200" y="230" width="60" height="30" as="geometry" />
        </mxCell>
        <mxCell id="i4vDzlRR8qIi1nZQJ5Jg-22" value="&lt;font style=&quot;font-size: 36px;&quot;&gt;A&lt;sub style=&quot;&quot;&gt;23&lt;/sub&gt;&lt;/font&gt;" style="text;strokeColor=none;align=center;fillColor=none;html=1;verticalAlign=middle;whiteSpace=wrap;rounded=0;" vertex="1" parent="1">
          <mxGeometry x="400" y="230" width="60" height="30" as="geometry" />
        </mxCell>
        <mxCell id="i4vDzlRR8qIi1nZQJ5Jg-23" value="&lt;font style=&quot;font-size: 36px;&quot;&gt;A&lt;sub style=&quot;&quot;&gt;34&lt;/sub&gt;&lt;/font&gt;" style="text;strokeColor=none;align=center;fillColor=none;html=1;verticalAlign=middle;whiteSpace=wrap;rounded=0;" vertex="1" parent="1">
          <mxGeometry x="600" y="230" width="60" height="30" as="geometry" />
        </mxCell>
        <mxCell id="i4vDzlRR8qIi1nZQJ5Jg-24" value="&lt;font style=&quot;font-size: 36px;&quot;&gt;y&lt;/font&gt;" style="text;strokeColor=none;align=center;fillColor=none;html=1;verticalAlign=middle;whiteSpace=wrap;rounded=0;" vertex="1" parent="1">
          <mxGeometry x="100" y="585" width="60" height="30" as="geometry" />
        </mxCell>
        <mxCell id="i4vDzlRR8qIi1nZQJ5Jg-25" value="&lt;font style=&quot;font-size: 36px;&quot;&gt;y&lt;/font&gt;" style="text;strokeColor=none;align=center;fillColor=none;html=1;verticalAlign=middle;whiteSpace=wrap;rounded=0;fontSize=36;" vertex="1" parent="1">
          <mxGeometry x="300" y="585" width="60" height="30" as="geometry" />
        </mxCell>
        <mxCell id="i4vDzlRR8qIi1nZQJ5Jg-26" value="&lt;font style=&quot;font-size: 36px;&quot;&gt;y&lt;/font&gt;" style="text;strokeColor=none;align=center;fillColor=none;html=1;verticalAlign=middle;whiteSpace=wrap;rounded=0;fontSize=36;" vertex="1" parent="1">
          <mxGeometry x="700" y="585" width="60" height="30" as="geometry" />
        </mxCell>
        <mxCell id="i4vDzlRR8qIi1nZQJ5Jg-27" value="&lt;font style=&quot;font-size: 36px;&quot;&gt;y&lt;/font&gt;" style="text;strokeColor=none;align=center;fillColor=none;html=1;verticalAlign=middle;whiteSpace=wrap;rounded=0;fontSize=36;" vertex="1" parent="1">
          <mxGeometry x="500" y="585" width="60" height="30" as="geometry" />
        </mxCell>
        <mxCell id="i4vDzlRR8qIi1nZQJ5Jg-28" value="&lt;font style=&quot;font-size: 36px;&quot;&gt;p(y|z&lt;sub style=&quot;font-size: 36px;&quot;&gt;1&lt;/sub&gt;)&lt;/font&gt;" style="text;strokeColor=none;align=center;fillColor=none;html=1;verticalAlign=middle;whiteSpace=wrap;rounded=0;fontSize=36;" vertex="1" parent="1">
          <mxGeometry x="160" y="420" width="60" height="30" as="geometry" />
        </mxCell>
        <mxCell id="i4vDzlRR8qIi1nZQJ5Jg-29" value="&lt;font style=&quot;font-size: 36px;&quot;&gt;p(y|z&lt;sub style=&quot;font-size: 36px;&quot;&gt;2&lt;/sub&gt;)&lt;/font&gt;" style="text;strokeColor=none;align=center;fillColor=none;html=1;verticalAlign=middle;whiteSpace=wrap;rounded=0;fontSize=36;" vertex="1" parent="1">
          <mxGeometry x="360" y="420" width="60" height="30" as="geometry" />
        </mxCell>
        <mxCell id="i4vDzlRR8qIi1nZQJ5Jg-30" value="&lt;font style=&quot;font-size: 36px;&quot;&gt;p(y|z&lt;sub style=&quot;font-size: 36px;&quot;&gt;3&lt;/sub&gt;)&lt;/font&gt;" style="text;strokeColor=none;align=center;fillColor=none;html=1;verticalAlign=middle;whiteSpace=wrap;rounded=0;fontSize=36;" vertex="1" parent="1">
          <mxGeometry x="560" y="420" width="60" height="30" as="geometry" />
        </mxCell>
      </root>
    </mxGraphModel>
  </diagram>
</mxfile>
